<svg id="Camada_1" data-name="Camada 1" xmlns="http://www.w3.org/2000/svg" viewBox="0 0 200 200"><defs><style>.cls-1{fill:#9b4dee;}.cls-2{fill:#ebdbfc;}.cls-3{fill:#d7b8f8;}.cls-4{fill:#af71f1;}</style></defs><title>etapas-QueroDelivery</title><path class="cls-1" d="M173.24,193.1H115.4L105.75,64.55h77.14Zm0,0"/><rect class="cls-2" x="96.11" y="48.48" width="96.41" height="16.07" rx="8.03"/><rect class="cls-1" x="137.89" y="6.7" width="12.86" height="41.78"/><path class="cls-3" d="M9.34,167.39H137.89v12.86A12.85,12.85,0,0,1,125,193.1H22.19A12.85,12.85,0,0,1,9.34,180.25Zm0,0"/><path class="cls-3" d="M54.33,96.69H92.9a45,45,0,0,1,45,45H9.34a45,45,0,0,1,45-45Zm0,0"/><path class="cls-4" d="M22.19,141.68H125a12.86,12.86,0,0,1,0,25.71H22.19a12.86,12.86,0,0,1,0-25.71Zm0,0"/><path class="cls-2" d="M54.33,141.68,92.9,167.39l35.35-25.71Zm0,0"/><rect class="cls-2" x="80.04" y="119.19" width="6.43" height="6.43" rx="3.21"/><rect class="cls-2" x="60.76" y="119.19" width="6.43" height="6.43" rx="3.21"/><rect class="cls-2" x="41.48" y="119.19" width="6.43" height="6.43" rx="3.21"/><rect class="cls-2" x="89.68" y="106.33" width="6.43" height="6.43" rx="3.21"/><rect class="cls-2" x="70.4" y="106.33" width="6.43" height="6.43" rx="3.21"/><rect class="cls-2" x="51.12" y="106.33" width="6.43" height="6.43" rx="3.21"/><rect class="cls-2" x="99.33" y="119.19" width="6.43" height="6.43" rx="3.21"/></svg>