<?xml version="1.0" encoding="utf-8"?>
<!-- Generator: Adobe Illustrator 22.0.1, SVG Export Plug-In . SVG Version: 6.00 Build 0)  -->
<svg version="1.1" id="Camada_1" xmlns="http://www.w3.org/2000/svg" xmlns:xlink="http://www.w3.org/1999/xlink" x="0px" y="0px"
	 viewBox="0 0 200 200" style="enable-background:new 0 0 200 200;" xml:space="preserve">
<style type="text/css">
	.st0{fill:#D7B8F8;}
	.st1{fill:#9B4DEE;}
	.st2{fill:#7C3EBE;}
	.st3{fill:#C394F5;}
	.st4{fill:#EBDBFC;}
</style>
<title>etapas-QueroDelivery</title>
<path class="st0" d="M193.1,189.7H6.9V19c0-0.9,0.8-1.7,1.7-1.7c0,0,0,0,0,0h182.8c0.9,0,1.7,0.8,1.7,1.7c0,0,0,0,0,0V189.7z"/>
<polygon class="st1" points="24.1,100 120.7,100 120.7,169 24.1,169 24.1,100 "/>
<polygon class="st1" points="134.5,100 175.9,100 175.9,188.8 134.5,188.8 134.5,100 "/>
<path class="st2" d="M81.8,79.3L81.8,79.3c-5,0-9.1-4.1-9.1-9.1v-8.2h18.2v8.2C90.9,75.2,86.8,79.3,81.8,79.3z"/>
<path class="st2" d="M118.2,79.3L118.2,79.3c-5,0-9.1-4.1-9.1-9.1v-8.2h18.2v8.2C127.3,75.2,123.2,79.3,118.2,79.3z"/>
<path class="st2" d="M45.5,79.3L45.5,79.3c-5,0-9.1-4.1-9.1-9.1v-8.2h18.2v8.2C54.5,75.2,50.5,79.3,45.5,79.3
	C45.5,79.3,45.5,79.3,45.5,79.3z"/>
<path class="st2" d="M9.1,79.3L9.1,79.3c-5,0-9.1-4.1-9.1-9.1v-8.2h18.2v8.2C18.2,75.2,14.1,79.3,9.1,79.3z"/>
<path class="st2" d="M154.6,79.3L154.6,79.3c-5,0-9.1-4.1-9.1-9.1c0,0,0,0,0,0v-8.2h18.2v8.2C163.6,75.2,159.6,79.3,154.6,79.3z"/>
<path class="st3" d="M63.6,79.3L63.6,79.3c-5,0-9.1-4.1-9.1-9.1v-8.2h18.2v8.2C72.7,75.2,68.7,79.3,63.6,79.3z"/>
<path class="st3" d="M136.4,79.3L136.4,79.3c-5,0-9.1-4.1-9.1-9.1v-8.2h18.2v8.2C145.5,75.2,141.4,79.3,136.4,79.3L136.4,79.3z"/>
<path class="st2" d="M190.9,79.3L190.9,79.3c-5,0-9.1-4.1-9.1-9.1v-8.2H200v8.2C200,75.2,195.9,79.3,190.9,79.3z"/>
<path class="st3" d="M172.7,79.3L172.7,79.3c-5,0-9.1-4.1-9.1-9.1v-8.2h18.2v8.2C181.8,75.2,177.8,79.3,172.7,79.3L172.7,79.3z"/>
<path class="st3" d="M27.3,79.3L27.3,79.3c-5,0-9.1-4.1-9.1-9.1v-8.2h18.2v8.2C36.4,75.2,32.3,79.3,27.3,79.3z"/>
<path class="st3" d="M100,79.3L100,79.3c-5,0-9.1-4.1-9.1-9.1v-8.2h18.2v8.2C109.1,75.2,105,79.3,100,79.3z"/>
<polygon class="st1" points="90.9,62.1 72.7,62.1 74.6,34.5 91.5,34.5 90.9,62.1 "/>
<polygon class="st1" points="127.3,62.1 109.1,62.1 108.5,34.5 125.4,34.5 127.3,62.1 "/>
<polygon class="st1" points="54.5,62.1 36.4,62.1 40.8,34.5 57.7,34.5 54.5,62.1 "/>
<polygon class="st1" points="18.2,62.1 0,62.1 6.9,34.5 23.8,34.5 18.2,62.1 "/>
<polygon class="st1" points="163.6,62.1 145.5,62.1 142.3,34.5 159.3,34.5 163.6,62.1 "/>
<polygon class="st4" points="72.7,62.1 54.5,62.1 57.7,34.5 74.6,34.5 72.7,62.1 "/>
<polygon class="st4" points="145.5,62.1 127.3,62.1 125.4,34.5 142.3,34.5 145.5,62.1 "/>
<polygon class="st1" points="200,62.1 181.8,62.1 176.2,34.5 193.1,34.5 200,62.1 "/>
<polygon class="st4" points="181.8,62.1 163.6,62.1 159.3,34.5 176.2,34.5 181.8,62.1 "/>
<polygon class="st4" points="36.4,62.1 18.2,62.1 23.8,34.5 40.8,34.5 36.4,62.1 "/>
<polygon class="st4" points="109.1,62.1 90.9,62.1 91.5,34.5 108.5,34.5 109.1,62.1 "/>
<path class="st1" d="M153.4,27.6H46.5c-1,0-1.7-0.8-1.7-1.7V8.6c0-0.9,0.8-1.7,1.7-1.7l0,0h106.9c0.9,0,1.7,0.8,1.7,1.7v0v17.2
	C155.2,26.8,154.4,27.6,153.4,27.6z"/>
<path class="st1" d="M198.3,193.1H1.7c-0.9,0-1.7-0.8-1.7-1.7c0,0,0,0,0,0v-3.4c0-0.9,0.8-1.7,1.7-1.7c0,0,0,0,0,0h196.6
	c0.9,0,1.7,0.8,1.7,1.7l0,0v3.4C200,192.3,199.2,193.1,198.3,193.1L198.3,193.1z"/>
</svg>
