<svg id="Camada_1" data-name="Camada 1" xmlns="http://www.w3.org/2000/svg" viewBox="0 0 200 200"><defs><style>.cls-1{fill:#9b4dee;}</style></defs><title>etapas-QueroDelivery</title><path class="cls-1" d="M130,56a5.23,5.23,0,0,1-3.66-9l24-23.49a5.23,5.23,0,1,1,7.32,7.47l-24,23.49A5.21,5.21,0,0,1,130,56Z"/><path class="cls-1" d="M100,46.73a5.23,5.23,0,0,1-5.23-5.23V12.27a5.23,5.23,0,0,1,10.46,0V41.5A5.23,5.23,0,0,1,100,46.73Z"/><path class="cls-1" d="M70,56a5.21,5.21,0,0,1-3.66-1.5l-24-23.49a5.23,5.23,0,1,1,7.32-7.47l24,23.49A5.23,5.23,0,0,1,70,56Z"/><path class="cls-1" d="M168.47,182.57,161.1,81.93a2.71,2.71,0,0,0-2.68-2.51c-2.54,0-3.67-1.14-5.38-2.85-2-2-4.41-4.41-9.17-4.45h-.09c-4.7,0-7.16,2.4-9.13,4.33-1.74,1.68-2.89,2.82-5.42,2.78s-3.67-1.14-5.38-2.85c-2-2-4.41-4.41-9.17-4.45h-.09c-4.7,0-7.15,2.4-9.13,4.33C103.74,77.93,102.6,79,100.1,79h-.2c-2.5,0-3.64-1.11-5.36-2.78-2-1.93-4.43-4.33-9.13-4.33h-.09c-4.76,0-7.2,2.48-9.17,4.45-1.71,1.71-2.84,2.84-5.38,2.85s-3.68-1.1-5.42-2.78c-2-1.93-4.43-4.33-9.13-4.33h-.09c-4.76,0-7.2,2.48-9.17,4.45-1.71,1.71-2.84,2.84-5.38,2.85a2.71,2.71,0,0,0-2.68,2.51L31.53,182.57a10.22,10.22,0,0,0,10.18,11H158.29a10.22,10.22,0,0,0,10.18-11ZM114.8,89.25a7.15,7.15,0,1,1-7.15,7.14A7.14,7.14,0,0,1,114.8,89.25Zm-29.6,0a7.15,7.15,0,1,1-7.15,7.14A7.14,7.14,0,0,1,85.2,89.25Zm14.89,63.19h-.18A43.59,43.59,0,0,1,56.36,108.9a5.09,5.09,0,1,1,10.18,0,33.41,33.41,0,0,0,33.37,33.36h.18a33.41,33.41,0,0,0,33.37-33.36,5.09,5.09,0,1,1,10.18,0A43.59,43.59,0,0,1,100.09,152.44Z"/></svg>