<svg id="Camada_1" data-name="Camada 1" xmlns="http://www.w3.org/2000/svg" viewBox="0 0 200 200"><defs><style>.cls-1{fill:#9b4dee;}.cls-2{fill:#ebdbfc;}.cls-3{fill:#c394f5;}.cls-4{fill:#af71f1;}</style></defs><title>etapas-QueroDelivery</title><path class="cls-1" d="M27.7,82.49,42.44,16.63A12.27,12.27,0,0,1,57.09,7.34L176.83,34.13a12.27,12.27,0,0,1,9.29,14.65l-14.74,65.86a12.27,12.27,0,0,1-14.65,9.29L37,97.14A12.27,12.27,0,0,1,27.7,82.49Zm0,0"/><path class="cls-2" d="M50.12,38.47,53.34,24.1a4.9,4.9,0,0,1,5.86-3.72L73.57,23.6a4.9,4.9,0,0,1,3.72,5.86L74.07,43.83a4.91,4.91,0,0,1-5.86,3.72L53.84,44.33a4.92,4.92,0,0,1-3.72-5.86Zm0,0"/><rect class="cls-3" x="28.45" y="78.09" width="147.24" height="18.37" transform="translate(21.52 -20.18) rotate(12.61)"/><rect class="cls-4" x="20.53" y="92.8" width="158.7" height="85.36" transform="translate(-25.14 22.78) rotate(-11.57)"/><circle class="cls-1" cx="99.88" cy="135.48" r="30.22"/><circle class="cls-1" cx="153.64" cy="124.47" r="10.99"/><circle class="cls-1" cx="46.11" cy="146.48" r="10.99"/><path class="cls-2" d="M93.35,140.34c2.85-2,5.14-5.71,4.05-11l-.16-.8c-1.86-9.07-8.76-10.71-18-8.82a92.62,92.62,0,0,0-10.33,2.79c-2,.77-2.7,1.48-2.21,3.86l6.64,32.43a1.06,1.06,0,0,0,1.24.78l8-1.64a1,1,0,0,0,.79-1.2l-2.49-12.15c.5-.1,2.09-.37,2.59-.48l.39.13,8.63,10.63c.35.45.65.9,1.2.79l9.12-1.86a.78.78,0,0,0,.69-.92,1.33,1.33,0,0,0-.26-.52Zm-6-8.91c.48,2.33-.58,3.94-4.4,4.72-.3.06-3.37.69-3.63.7L77.74,129c.3-.06,3.45-.81,3.8-.88,3.32-.68,5.2.17,5.68,2.51Z"/><path class="cls-2" d="M131.39,136.58c-.85-4.11-3.25-7-8.59-8.63l-7.43-2.2c-2.36-.7-2.91-1.11-3.09-2-.21-1,.3-1.82,2.13-2.19,3.57-.73,9.33-1.39,11.39-1.66l.1,0a.92.92,0,0,0,.7-1.13l-1.27-6.2c-.11-.54-.61-.7-1.08-.76a46.53,46.53,0,0,0-8.07.5l-.31-1.52a1.43,1.43,0,0,0-1.67-1.11l-4.31.89a1.41,1.41,0,0,0-1.11,1.67l.33,1.63c-6.89,2.43-8.31,6.86-7.35,11.54.78,3.82,2.71,6.93,7.93,8.71l8,2.75c2.06.72,2.66,1.16,2.87,2.15.32,1.59-.18,2.67-2.61,3.17-2.63.54-8.1,1.09-10.22,1.32l-.1,0a1,1,0,0,0-.74,1.18l1.25,6.1c.11.55.72.73,1.25.78a34.66,34.66,0,0,0,7.38-.27l.42,2.07a1.42,1.42,0,0,0,1.68,1.1l4.31-.88a1.4,1.4,0,0,0,1.1-1.67l-.48-2.35C130.6,146.74,132.35,141.29,131.39,136.58Z"/></svg>