<?xml version="1.0" encoding="utf-8"?>
<!-- Generator: Adobe Illustrator 22.0.1, SVG Export Plug-In . SVG Version: 6.00 Build 0)  -->
<svg version="1.1" id="Camada_1" xmlns="http://www.w3.org/2000/svg" xmlns:xlink="http://www.w3.org/1999/xlink" x="0px" y="0px"
	 viewBox="0 0 322.8 525.8" style="enable-background:new 0 0 322.8 525.8;" xml:space="preserve">
<style type="text/css">
	.st0{fill:#EDF0FF;}
	.st1{fill:#C394F5;}
	.st2{fill:#EBDBFC;}
	.st3{fill:#D7B8F8;}
	.st4{fill:#EDE9E8;}
	.st5{fill:#7C3EBE;}
	.st6{fill:#9B4DEE;}
	.st7{fill:#9F8CBD;}
	.st8{fill:#CDCDCD;}
	.st9{fill:#AF71F1;}
	.st10{fill:#874E35;}
	.st11{fill:#99AF17;}
	.st12{fill:#FF4B34;}
	.st13{fill:#FFCE8D;}
	.st14{fill:#EF5264;}
	.st15{fill:none;stroke:#521F9B;stroke-width:1.5313;stroke-linecap:round;stroke-miterlimit:10;}
	.st16{fill:#521F9B;}
	.st17{fill:#753ABD;}
	.st18{fill:#362441;}
	.st19{fill:none;stroke:#521F9B;stroke-width:0.7656;stroke-linecap:round;stroke-miterlimit:10;}
	.st20{fill:#B73B55;}
	.st21{fill:#EAA253;}
	.st22{fill:#14B7C9;}
	.st23{fill:#CC3652;}
	.st24{fill:#FFFFFF;}
	.st25{fill:#1C1223;}
	.st26{fill:#521CA0;}
	.st27{fill:none;stroke:#521CA0;stroke-width:1.5875;stroke-linecap:round;stroke-linejoin:round;stroke-miterlimit:10;}
	.st28{fill:none;stroke:#521CA0;stroke-width:0.7937;stroke-linecap:round;stroke-linejoin:round;stroke-miterlimit:10;}
	.st29{fill:#252322;}
</style>
<g>
	<g>
		<g>
			<g>
				<g>
					<path class="st0" d="M63,16.7l0,45.2v24.2l0,80.3v57.9l0,85.5V334v10.1c1.6,22.3,23.5,15.4,23.5,15.4s4.4-1.1,11.1-2.8
						c8.4-2.1,20.3-5.1,31.8-8.1c16-4.1,31-8.2,34.6-9.5c8.2-3.1,8.2-16.6,8.2-16.6v-17.2l0-24.2l0-57.9V199v-85.5V55.6V39.9
						c1.3-12.9-10.7-17.6-10.7-17.6s-12.3-3.8-27.5-8.3c-5.9-1.7-12.3-3.6-18.6-5.3C102.5,5.1,90.1,1.9,83,0.7
						C63.6-2.8,63,16.7,63,16.7z"/>
				</g>
				<path class="st1" d="M112.7,20c0,1.2,0.8,2.1,1.7,2.1s1.7-0.9,1.7-2.1c0-1.2-0.8-2.1-1.7-2.1C113.4,17.9,112.7,18.9,112.7,20z"
					/>
				<g>
					<polygon class="st1" points="138,26.6 138,23.6 119.6,19.7 119.6,22.6 					"/>
				</g>
			</g>
			<g>
				<path class="st2" d="M63,16.7v45.2l0,0v24.2v80.3l0,0v57.9l0,85.5V334v10.1c1.3,18.7,17,16.9,22,15.8
					c-5.3-1.4-10.4-5.5-11.1-15.8v-21.2v-24.2l0-85.5v-57.9l0-80.3V50.8V16.7c0,0,0.4-12.6,10.7-15.7c-0.5-0.1-1-0.2-1.5-0.3
					C63.6-2.8,63,16.7,63,16.7z"/>
				<g>
					<path class="st1" d="M68.2,81.5L68.2,81.5c1.1,0,2-0.9,2-2V56.6c0-1.1-0.9-2-2-2l0,0c-1.1,0-2,0.9-2,2v22.9
						C66.3,80.6,67.1,81.5,68.2,81.5z"/>
					<path class="st1" d="M68.2,113.7L68.2,113.7c1.1,0,2-0.9,2-2V88.8c0-1.1-0.9-2-2-2l0,0c-1.1,0-2,0.9-2,2v22.9
						C66.3,112.8,67.1,113.7,68.2,113.7z"/>
				</g>
			</g>
			<g>
				<polygon class="st2" points="77.1,20.2 77.1,76.7 77.1,132.7 77.1,205.7 77.1,284.8 77.1,332.3 77.1,337.7 130.6,327.7 
					170.6,320.1 170.6,282.5 170.5,266.5 170.5,226.6 170.4,179.2 170.3,100.2 170.2,42.6 159,39.9 118.2,30.1 103.6,26.6 				"/>
				<g>
					<path class="st2" d="M77.1,20.2v56.4l0,56v73l0,79.1v47.5v5.4l53.6-10.1l40-7.5l-0.1-37.7l0-16c-22,10.7-56.2,18.5-71.8-24
						c-20.1-54.6-15.2-168.8,4.9-215.8L77.1,20.2z"/>
				</g>
			</g>
		</g>
	</g>
	<g>
		<g>
			<g>
				<g>
					<g>
						<polygon class="st3" points="166.7,314.6 80.6,333 80.6,293.8 166.7,280.6 						"/>
						<polygon class="st1" points="159.6,293.4 120.4,300.2 120.4,294 159.6,287.6 						"/>
						<polygon class="st1" points="159.6,310.2 120.4,318.2 120.4,312 159.6,304.4 						"/>
					</g>
					<g>
						<g>
							<path class="st4" d="M114.2,307.2c0,11.3-6.4,21.8-14.3,23.5s-14.3-6.4-14.3-18.2S92,290.2,99.9,289
								C107.8,287.8,114.2,296,114.2,307.2z"/>
						</g>
					</g>
				</g>
			</g>
			<g>
				<g>
					<g>
						<polygon class="st3" points="166.7,82.4 80.6,65.7 80.6,26.5 166.7,48.4 						"/>
						<polygon class="st1" points="159.6,58.3 120.4,49.1 120.4,42.9 159.6,52.5 						"/>
						<polygon class="st1" points="159.6,75.1 120.4,67.1 120.4,60.9 159.6,69.3 						"/>
					</g>
				</g>
				<g>
					<g>
						<path class="st4" d="M113.8,53.5c0,11.2-6.4,19.1-14.3,17.6c-7.9-1.5-14.3-12.3-14.3-24s6.4-19.6,14.3-17.6
							C107.4,31.5,113.8,42.2,113.8,53.5L113.8,53.5z"/>
					</g>
				</g>
			</g>
			<g>
				<g>
					<g>
						<g>
							
								<image style="overflow:visible;enable-background:new    ;" width="144" height="102" xlink:href="5C2762ED.png"  transform="matrix(1 0 0 1 51.5376 109.7384)">
							</image>
						</g>
						<polygon class="st3" points="178,175.7 91.8,173 91.8,134.4 178,142.3 						"/>
						<polygon class="st1" points="170.8,153.1 131.6,150.3 131.6,144.3 170.8,147.4 						"/>
						<polygon class="st1" points="170.8,169.6 131.6,168 131.6,161.9 170.8,163.9 						"/>
					</g>
					<g>
						<g>
							<path class="st4" d="M125.5,155.8c0,11.1-6.4,19.8-14.3,19.6c-7.9-0.2-14.3-9.8-14.3-21.4s6.4-20.4,14.3-19.6
								C119,135.1,125.5,144.7,125.5,155.8z"/>
						</g>
					</g>
				</g>
			</g>
			<g>
				<g>
					<g>
						<polygon class="st3" points="166.7,221.7 80.6,226.1 80.6,186.9 166.7,187.7 						"/>
						<polygon class="st1" points="159.6,199.3 120.4,199.8 120.4,193.6 159.6,193.5 						"/>
						<polygon class="st1" points="159.6,216.2 120.4,217.7 120.4,211.6 159.6,210.4 						"/>
					</g>
					<g>
						<g>
							<path class="st4" d="M114.2,205.8c0,11.3-6.4,20.7-14.3,21.2s-14.3-8.8-14.3-20.6s6.4-21.3,14.3-21.2
								S114.2,194.5,114.2,205.8z"/>
						</g>
					</g>
				</g>
			</g>
			<g>
				<g>
					<g>
						<polygon class="st3" points="166.7,128.8 80.6,119.1 80.6,79.9 166.7,94.8 						"/>
						<polygon class="st1" points="159.6,105.2 120.4,99.3 120.4,93.1 159.6,99.4 						"/>
						<polygon class="st1" points="159.6,122.1 120.4,117.2 120.4,111 159.6,116.3 						"/>
					</g>
					<g>
						<g>
							<path class="st4" d="M114.2,104.3c0,11.3-6.4,19.7-14.3,18.8S85.6,112,85.6,100.2S92,80,99.9,81.4
								C107.8,82.8,114.2,93,114.2,104.3z"/>
						</g>
					</g>
				</g>
			</g>
			<g>
				<g>
					<g>
						<polygon class="st3" points="166.7,268.2 80.6,279.6 80.6,240.4 166.7,234.1 						"/>
						<polygon class="st1" points="159.6,246.4 120.4,250 120.4,243.8 159.6,240.6 						"/>
						<polygon class="st1" points="159.6,263.2 120.4,268 120.4,261.8 159.6,257.4 						"/>
					</g>
					<g>
						<g>
							<path class="st4" d="M114.2,256.5c0,11.3-6.4,21.3-14.3,22.3c-7.9,1.1-14.3-7.6-14.3-19.4s6.4-21.8,14.3-22.3
								C107.8,236.6,114.2,245.3,114.2,256.5z"/>
						</g>
					</g>
				</g>
			</g>
			<g>
				<path class="st5" d="M97.1,218.9c0,0.9-0.5,1.7-1.1,1.7c-0.6,0-1.1-0.7-1.1-1.6c0-0.9,0.5-1.7,1.1-1.7
					C96.6,217.3,97.1,218,97.1,218.9"/>
				<path class="st5" d="M105.5,218.6c0,0.9-0.5,1.7-1.1,1.7c-0.6,0-1.1-0.7-1.1-1.6c0-0.9,0.5-1.7,1.1-1.7
					C105,217,105.5,217.7,105.5,218.6"/>
				<polyline class="st6" points="92.4,198.8 92.4,198.9 94.8,212.1 107.1,210.4 108.4,198.7 92.4,198.8 				"/>
				<polyline class="st7" points="94.8,212.1 94.8,212.1 94.8,212 95.4,211.9 95.4,212 94.8,212.1 				"/>
				<path class="st3" d="M94.8,215.9l11.6-0.4c0.2,0,0.3,0.2,0.3,0.4c0,0.3-0.1,0.5-0.3,0.5l-11.7,0.4c0,0,0,0,0,0
					c-1,0-1.7-1.6-1.2-2.9l0.6-1.9l-3.5-19.4h-2.3c-0.2,0-0.3-0.2-0.3-0.4c0-0.3,0.1-0.5,0.3-0.5l2.7,0l1.3,7.2l2.4,13.2l-0.7,2.2
					C93.8,215,94.2,216,94.8,215.9C94.8,215.9,94.8,215.9,94.8,215.9L94.8,215.9z"/>
				<path class="st8" d="M96,217.3L96,217.3L96,217.3 M96,217.3L96,217.3L96,217.3 M96,217.3L96,217.3L96,217.3 M96,217.3L96,217.3
					L96,217.3 M96,217.3L96,217.3L96,217.3 M96,217.3L96,217.3L96,217.3 M96,217.3L96,217.3L96,217.3 M96,217.3L96,217.3L96,217.3
					 M96,217.3L96,217.3L96,217.3L96,217.3"/>
				<path class="st8" d="M104.5,217c0,0-0.1,0-0.1,0l0,0C104.4,217,104.5,217,104.5,217"/>
				<path class="st2" d="M95,216.9c0,0,0.6,2.6,0.9,2.6c0.3,0,0.9-2.6,0.9-2.6L95,216.9L95,216.9z"/>
				<g>
					<path class="st2" d="M103.4,216.6c0,0,0.6,2.6,0.9,2.5c0.3,0,0.9-2.6,0.9-2.6L103.4,216.6L103.4,216.6z"/>
				</g>
				<path class="st3" d="M105.1,208.9c-0.1,0-0.1-0.1-0.1-0.3l0.6-8c0-0.1,0.1-0.2,0.2-0.2s0.1,0.1,0.1,0.3l-0.6,8
					C105.2,208.8,105.1,208.9,105.1,208.9L105.1,208.9z"/>
				<path class="st3" d="M102.9,209c-0.1,0-0.2-0.1-0.1-0.3l0.4-8.1c0-0.1,0.1-0.2,0.2-0.2c0.1,0,0.2,0.1,0.1,0.3l-0.4,8.1
					C103.1,208.9,103,209,102.9,209L102.9,209z"/>
				<path class="st3" d="M100.7,209.2c-0.1,0-0.2-0.1-0.2-0.2v-8.3c0-0.1,0.1-0.2,0.2-0.2s0.2,0.1,0.2,0.2v8.3
					C100.8,209.1,100.7,209.2,100.7,209.2L100.7,209.2z"/>
				<path class="st3" d="M98.5,209.4c-0.1,0-0.2-0.1-0.2-0.2l-0.7-8.4c0-0.1,0-0.3,0.1-0.3s0.2,0.1,0.2,0.2l0.7,8.4
					C98.7,209.3,98.6,209.4,98.5,209.4L98.5,209.4z"/>
				<path class="st3" d="M96.3,209.5c-0.1,0-0.2-0.1-0.2-0.2l-1.3-8.3c0-0.1,0-0.3,0.1-0.3s0.2,0.1,0.2,0.2l1.3,8.3
					C96.5,209.3,96.4,209.4,96.3,209.5L96.3,209.5z"/>
			</g>
			<g>
				<path class="st3" d="M102.7,302.5v-4.6l-7.1,1.2v4.7l-1.7,1.8c-0.4,0.4-0.6,1.1-0.6,1.7v15.1c0,0.9,0.5,1.6,1.1,1.5l9.4-1.9
					c0.6-0.1,1.1-1,1.1-1.9v-14.9c0-0.6-0.2-1.2-0.6-1.5L102.7,302.5L102.7,302.5z"/>
				<path class="st3" d="M102.7,302.5l-7.1,1.2l-1.7,1.8c-0.4,0.4-0.6,1.1-0.6,1.7v15.1c0,0.9,0.5,1.6,1.1,1.5l9.4-1.9
					c0.6-0.1,1.1-1,1.1-1.9v-14.9c0-0.6-0.2-1.2-0.6-1.5L102.7,302.5L102.7,302.5z"/>
				<path class="st6" d="M103.4,300.6l-8.5,1.5c-0.3,0-0.5-0.3-0.5-0.7v-2.6c0-0.4,0.2-0.8,0.5-0.9l8.5-1.4c0.3,0,0.5,0.3,0.5,0.7
					v2.5C103.9,300.2,103.7,300.6,103.4,300.6L103.4,300.6z"/>
				<path class="st2" d="M95.9,300.7c-0.1,0-0.3-0.1-0.3-0.3v-0.9c0-0.2,0.1-0.4,0.3-0.4c0.1,0,0.3,0.1,0.3,0.3v0.9
					C96.2,300.4,96.1,300.6,95.9,300.7L95.9,300.7z"/>
				<path class="st2" d="M97.5,300.4c-0.1,0-0.3-0.1-0.3-0.3v-0.9c0-0.2,0.1-0.4,0.3-0.4c0.1,0,0.3,0.1,0.3,0.3v0.9
					C97.8,300.2,97.7,300.4,97.5,300.4L97.5,300.4z"/>
				<path class="st2" d="M99.1,300.1c-0.1,0-0.3-0.1-0.3-0.3v-0.9c0-0.2,0.1-0.4,0.3-0.4c0.1,0,0.3,0.1,0.3,0.3v0.9
					C99.4,299.9,99.3,300.1,99.1,300.1L99.1,300.1z"/>
				<path class="st2" d="M100.7,299.9c-0.1,0-0.3-0.1-0.3-0.3v-0.9c0-0.2,0.1-0.4,0.3-0.4c0.1,0,0.3,0.1,0.3,0.3v0.9
					C101,299.6,100.9,299.8,100.7,299.9L100.7,299.9z"/>
				<path class="st2" d="M102.3,299.6c-0.1,0-0.3-0.1-0.3-0.3v-0.9c0-0.2,0.1-0.4,0.3-0.4c0.1,0,0.3,0.1,0.3,0.3v0.9
					C102.6,299.4,102.5,299.6,102.3,299.6L102.3,299.6z"/>
				<path class="st6" d="M93.3,319l7.4-1.5c0.4-0.1,0.7-0.6,0.7-1.2v-7.4c0-0.6-0.3-1-0.7-0.9l-7.4,1.3V319L93.3,319z"/>
				<g>
					<path class="st2" d="M100,321.8L100,321.8c-0.8-1-0.8-2.8,0-4.1l4.5-7.3c0.8-1.3,2-1.5,2.8-0.5l0,0c0.8,1,0.8,2.8,0,4.1
						l-4.5,7.3C102,322.5,100.8,322.8,100,321.8L100,321.8z"/>
					<path class="st6" d="M107.3,309.8L107.3,309.8c-0.8-1-2-0.8-2.8,0.5l-2.2,3.7l2.8,3.5l2.2-3.7
						C108.1,312.6,108.1,310.8,107.3,309.8L107.3,309.8z"/>
				</g>
				<g>
					<path class="st2" d="M97.2,317L97.2,317c-0.4,0.1-0.6-0.2-0.6-0.6v-5.5c0-0.4,0.3-0.8,0.6-0.8l0,0c0.4-0.1,0.6,0.2,0.6,0.6v5.5
						C97.8,316.6,97.5,317,97.2,317z"/>
					<path class="st2" d="M94.8,314.4v-0.8c0-0.3,0.2-0.6,0.5-0.7l3.7-0.7c0.3,0,0.5,0.1,0.5,0.5v0.8c0,0.3-0.2,0.6-0.5,0.6
						l-3.7,0.7C95,314.9,94.8,314.7,94.8,314.4z"/>
				</g>
			</g>
			<g>
				<g>
					<path class="st6" d="M107,63.5l-6.1-1.3l-1-19.8l8.1,1.9L107,63.5z"/>
					<path class="st2" d="M99.7,39.9l8.4,2c0.5,0.1,0.8,0.7,0.8,1.4l0,0c0,0.7-0.4,1.1-0.8,1l-8.4-2c-0.5-0.1-0.8-0.8-0.8-1.4l0,0
						C98.9,40.2,99.2,39.8,99.7,39.9z"/>
				</g>
				<polygon class="st6" points="103.3,34.4 104.6,34.7 104.6,41 103.3,40.7 				"/>
				<path class="st3" d="M89.8,55.9l13.5,2.9v1.9c0,1.1-0.6,1.8-1.4,1.7l-10.8-2.2c-0.7-0.2-1.4-1.2-1.4-2.3V55.9z"/>
				<path class="st3" d="M94.5,46l4,0.9c2.6,0.6,4.7,4.1,4.7,7.9l-13.5-2.9C89.8,48.1,91.9,45.4,94.5,46L94.5,46z"/>
				<path class="st9" d="M91.1,52.2l10.8,2.4c0.7,0.2,1.4,1.2,1.4,2.3s-0.6,1.8-1.4,1.7l-10.8-2.3c-0.7-0.2-1.4-1.2-1.4-2.3
					C89.8,52.8,90.4,52.1,91.1,52.2L91.1,52.2z"/>
				<path class="st10" d="M103.1,55.8"/>
				<path class="st2" d="M94.5,53l4,4.8l3.7-3.1L94.5,53z"/>
				<path class="st2" d="M97.5,50.2L97.5,50.2c0.2,0,0.3,0.3,0.3,0.6l0,0c0,0.3-0.1,0.5-0.3,0.4l0,0c-0.2,0-0.3-0.3-0.3-0.6l0,0
					C97.2,50.3,97.3,50.1,97.5,50.2z"/>
				<path class="st2" d="M95.5,49.7L95.5,49.7c0.2,0,0.3,0.3,0.3,0.6l0,0c0,0.3-0.1,0.5-0.3,0.4l0,0c-0.2,0-0.3-0.3-0.3-0.6l0,0
					C95.2,49.9,95.3,49.7,95.5,49.7z"/>
				<path class="st2" d="M93.5,49.3L93.5,49.3c0.2,0,0.3,0.3,0.3,0.6l0,0c0,0.3-0.1,0.5-0.3,0.4l0,0c-0.2,0-0.3-0.3-0.3-0.6l0,0
					C93.1,49.4,93.3,49.2,93.5,49.3z"/>
				<path class="st2" d="M98.5,48.4L98.5,48.4c0.2,0,0.3,0.3,0.3,0.6l0,0c0,0.3-0.1,0.5-0.3,0.4l0,0c-0.2,0-0.3-0.3-0.3-0.6l0,0
					C98.2,48.6,98.3,48.4,98.5,48.4z"/>
				<path class="st2" d="M96.5,48L96.5,48c0.2,0,0.3,0.3,0.3,0.6l0,0c0,0.3-0.1,0.5-0.3,0.4l0,0c-0.2,0-0.3-0.3-0.3-0.6l0,0
					C96.2,48.1,96.3,47.9,96.5,48z"/>
				<path class="st2" d="M94.5,47.5L94.5,47.5c0.2,0,0.3,0.3,0.3,0.6l0,0c0,0.3-0.1,0.5-0.3,0.4l0,0c-0.2,0-0.3-0.3-0.3-0.6l0,0
					C94.2,47.7,94.3,47.5,94.5,47.5z"/>
				<path class="st2" d="M99.5,50.6L99.5,50.6c0.2,0,0.3,0.3,0.3,0.6l0,0c0,0.3-0.1,0.5-0.3,0.4l0,0c-0.2,0-0.3-0.3-0.3-0.6l0,0
					C99.2,50.8,99.4,50.6,99.5,50.6z"/>
			</g>
			<g>
				<path class="st3" d="M104.5,147.9l13.2,0.9c0.4,0,0.8,0.6,0.8,1.1v1.1c0,0.6-0.4,1.1-0.8,1.1l-13.2-0.9c-0.4,0-0.8-0.6-0.8-1.2
					v-1.1C103.8,148.3,104.1,147.8,104.5,147.9L104.5,147.9z"/>
				<path class="st3" d="M104.5,162.8l13.2,0.6c0.4,0,0.8,0.5,0.8,1.1v1.1c0,0.6-0.4,1.1-0.8,1.1l-13.2-0.6c-0.4,0-0.8-0.5-0.8-1.2
					v-1.1C103.8,163.3,104.1,162.8,104.5,162.8L104.5,162.8z"/>
				<path class="st6" d="M113,139.2l-0.2,1.6c0,0.3-0.2,0.4-0.4,0.4l-2.5-0.2c-0.2,0-0.3-0.2-0.4-0.5l-0.2-1.7c0-0.2,0-0.3,0.1-0.5
					c0.1-0.1,0.2-0.2,0.3-0.2l2.9,0.3c0.1,0,0.2,0.1,0.3,0.2C113,138.8,113,139,113,139.2L113,139.2z"/>
				<path class="st6" d="M112.3,139.1l-0.1,1.6c0,0.3-0.1,0.4-0.2,0.4l-1.5-0.1c-0.1,0-0.2-0.2-0.2-0.5l-0.1-1.7
					c0-0.4,0.1-0.7,0.2-0.6l1.8,0.2C112.2,138.4,112.3,138.8,112.3,139.1L112.3,139.1z"/>
				<g>
					<polygon class="st1" points="105.7,151.3 104.5,151.2 104.5,162.8 105.7,162.9 116.6,163.4 117.7,163.5 117.7,152.1 116.6,152 
											"/>
					<path class="st1" d="M105,167.8c0.3,0.4,0.7,0.7,1.1,0.7l10.1,0.4c0.4,0,0.8-0.2,1.1-0.6c0.3-0.4,0.5-0.9,0.5-1.5l-13.2-0.6
						C104.5,166.8,104.7,167.4,105,167.8z"/>
					<path class="st1" d="M116.6,148.7l1.2,0.1c0-1.3-0.6-2.5-1.5-3.1l-2.5-1.5c-0.9-0.5-1.5-1.8-1.5-3.1l-0.2,0l-1.9-0.2l-0.2,0
						c0,1.3-0.6,2.5-1.5,2.9L106,145c-0.9,0.4-1.5,1.5-1.5,2.9l1.2,0.1L116.6,148.7z"/>
				</g>
				<path class="st3" d="M118.5,155.3v0.9c0,0.6-0.4,0.9-0.8,0.9l-13.2-0.8c-0.4,0-0.7-0.4-0.8-1v-0.9c0-0.6,0.4-1,0.8-0.9l13.2,0.8
					C118.1,154.3,118.5,154.7,118.5,155.3L118.5,155.3z"/>
				<path class="st3" d="M117.4,149.9v1.1c0,0.6-0.3,1-0.6,1.1l-11.1-0.7c-0.4-0.1-0.7-0.6-0.6-1.2V149c0-0.6,0.3-1.1,0.6-1.1
					l11.1,0.8C117.1,148.8,117.4,149.3,117.4,149.9L117.4,149.9z"/>
				<path class="st3" d="M105.7,162.9l10.9,0.5c0.4,0,0.8,0.5,0.8,1.1v1.1c0,0.6-0.4,1.1-0.8,1.1l-10.9-0.5c-0.4,0-0.8-0.5-0.8-1.2
					V164C104.9,163.4,105.3,162.9,105.7,162.9L105.7,162.9z"/>
				<path class="st3" d="M105.6,153.5l11.1,0.7c0.4,0,0.6,0.4,0.6,1v0.9c0,0.5-0.3,0.9-0.6,0.9l-11.1-0.6c-0.4,0-0.6-0.5-0.6-1v-0.9
					C104.9,153.9,105.2,153.5,105.6,153.5L105.6,153.5z"/>
			</g>
			<g>
				<path class="st6" d="M102.8,115.7L97,115c-0.8-0.1-1.5,0.1-2.1-0.5v1.4c0,1,0.5,1.9,1.2,2l7.4,0.9c0.7,0.1,1.2-0.6,1.2-1.6v-1.4
					C104.2,116.1,103.5,115.8,102.8,115.7z M98.5,117.2l-2.1-0.3c-0.1,0-0.3-0.2-0.3-0.4s0.1-0.4,0.3-0.3l2.1,0.3
					c0.1,0,0.3,0.2,0.3,0.4S98.7,117.2,98.5,117.2z M103.4,117.8l-2.1-0.3c-0.1,0-0.3-0.2-0.3-0.4s0.1-0.4,0.3-0.3l2.1,0.3
					c0.1,0,0.3,0.2,0.3,0.4S103.5,117.8,103.4,117.8z"/>
				<path class="st6" d="M102.4,86.6l-4.9-0.8c-0.5-0.1-0.8,0.4-0.8,1.1v6.1c0.1,0,0.3,0,0.4,0l5.8,0.9c0.1,0,0.3,0.1,0.4,0.1v-6
					C103.2,87.2,102.8,86.6,102.4,86.6L102.4,86.6z M101.6,90.3c0,0.3-0.2,0.6-0.4,0.5l-2.5-0.4c-0.2,0-0.4-0.3-0.4-0.7v-0.9
					c0-0.3,0.2-0.6,0.4-0.5l2.5,0.4c0.2,0,0.4,0.3,0.4,0.7V90.3z"/>
				<path class="st9" d="M97,92.3l5.8,0.9c2.3,0.4,4.1,3.3,4.1,6.6v11.1c0,3.3-1.8,5.7-4.1,5.4l-5.8-0.7c-2.3-0.3-4.1-3.2-4.1-6.6
					V97.7C92.9,94.4,94.8,91.9,97,92.3L97,92.3z"/>
				<path class="st6" d="M106.9,105.6l-14.1-2c-0.1,0-0.2-0.1-0.2-0.3V103c0-0.1,0.1-0.2,0.2-0.2l14.1,2c0.1,0,0.2,0.1,0.2,0.2v0.3
					C107.1,105.5,107.1,105.6,106.9,105.6z"/>
			</g>
			<g>
				<g>
					<g>
						<path class="st2" d="M101.7,268.7L101.7,268.7c1-0.4,1.5-1.7,1.4-3l-1-6.9l-1.7,0.7L101.7,268.7z"/>
						<path class="st9" d="M102.4,244.8c-1.9,0.1-3.5,3.6-3.6,7.7c-0.1,4.2,1.5,7.5,3.4,7.3c1.9-0.1,3.5-3.6,3.6-7.8
							C105.9,248,104.4,244.7,102.4,244.8L102.4,244.8z"/>
						<path class="st11" d="M104.2,250.2"/>
						<g>
							<path class="st2" d="M101.7,268.7L101.7,268.7c-1,0.4-1.8-0.4-2-1.7l-1-6.9l1.7-0.7L101.7,268.7z"/>
							<path class="st9" d="M100.1,252c-1.1-3.7-3.5-5.7-5.3-4.4c-1.8,1.3-2.3,5.4-1.1,9.1c1.1,3.7,3.5,5.7,5.3,4.4
								C100.8,259.8,101.3,255.7,100.1,252L100.1,252z"/>
							<path class="st1" d="M103.5,250.5c-0.6-4.7-3-7.9-5.2-7.1s-3.5,5.4-2.9,10.1c0.6,4.8,3,7.9,5.2,7
								C102.9,259.7,104.2,255.2,103.5,250.5L103.5,250.5z"/>
						</g>
						<path class="st2" d="M99.2,252.7c-0.8,0.1-1.5-0.5-1.6-0.5c-0.1-0.1-0.2-0.4-0.1-0.6s0.3-0.3,0.4-0.2c0,0,0.8,0.7,1.5,0.4
							c0.4-0.2,0.8-0.6,1.1-1.4c0.1-0.2,0.3-0.3,0.4-0.2c0.1,0.1,0.2,0.4,0.1,0.6c-0.4,1-0.9,1.5-1.5,1.8
							C99.5,252.7,99.3,252.7,99.2,252.7L99.2,252.7z"/>
						<path class="st2" d="M99.7,256.7c-1.3,0.1-2.3-1.1-2.4-1.1c-0.1-0.1-0.1-0.4,0-0.6s0.3-0.2,0.4-0.1c0,0,1.2,1.3,2.4,0.9
							c0.7-0.3,1.3-1.1,1.7-2.4c0.1-0.2,0.3-0.3,0.4-0.2c0.1,0.1,0.2,0.4,0.1,0.6c-0.5,1.6-1.3,2.6-2.1,2.9
							C100,256.7,99.9,256.7,99.7,256.7L99.7,256.7z"/>
						<path class="st2" d="M99.5,249.3c0-0.3-0.3-0.5-0.5-0.4c-0.2,0.1-0.4,0.4-0.3,0.7l2.1,18.2c0,0,0,0.1,0,0.1
							c0.1,0.5,0.5,0.8,1,0.7h0h0c0.4-0.2,0.7-0.8,0.7-1.3c0,0,0-0.1,0-0.1L99.5,249.3z"/>
						<path class="st2" d="M101.3,267.8c0,0,0-0.1,0-0.1l-2.1-18.2c0-0.2,0-0.4,0.1-0.5c-0.1,0-0.2,0-0.3,0
							c-0.2,0.1-0.4,0.4-0.3,0.7l2.1,18.2c0,0,0,0.1,0,0.1c0.1,0.5,0.5,0.8,1,0.7h0h0c0.1,0,0.2-0.1,0.2-0.1
							C101.7,268.5,101.4,268.2,101.3,267.8L101.3,267.8z"/>
					</g>
					<g>
						<path class="st1" d="M102.1,270.2c-0.5-0.3-0.7-1.1-0.5-1.9l2.6-11.4c0.5-2.2,2.3-3.4,3.7-2.4c1.4,1,1.8,3.6,0.8,5.5l-5.1,9.7
							C103.2,270.3,102.6,270.6,102.1,270.2L102.1,270.2z"/>
						<path class="st6" d="M109.9,251.5L109.9,251.5c0.1-0.1,0.1-0.3,0.2-0.4c0.3-0.9,0.1-1.9-0.5-2.3c-0.6-0.4-1.3-0.1-1.6,0.8
							c-0.1,0.1-0.1,0.3-0.1,0.5l0,0v0c0,0,0,0.1,0,0.1l-0.4,3.1c0,0.3,0.1,0.5,0.2,0.6s0.4,0.1,0.5-0.1l1.6-2.2
							C109.8,251.6,109.9,251.6,109.9,251.5L109.9,251.5z"/>
						<path class="st6" d="M104.2,265.7c0,0-0.1,0-0.1,0l-1.3-0.7c-0.2-0.1-0.2-0.3-0.2-0.6s0.3-0.4,0.4-0.3l1.3,0.7
							c0.2,0.1,0.2,0.3,0.2,0.6C104.4,265.6,104.3,265.7,104.2,265.7L104.2,265.7z"/>
						<path class="st6" d="M106.1,264.1c0,0-0.1,0-0.1,0l-1.7-0.9c-0.2-0.1-0.2-0.3-0.2-0.6s0.3-0.4,0.4-0.3l1.7,0.9
							c0.2,0.1,0.2,0.3,0.2,0.6C106.4,263.9,106.3,264,106.1,264.1L106.1,264.1z"/>
						<path class="st6" d="M105.5,260.9c0,0-0.1,0-0.1,0l-1.3-0.7c-0.2-0.1-0.2-0.3-0.2-0.6s0.3-0.4,0.4-0.3l1.3,0.7
							c0.2,0.1,0.2,0.3,0.2,0.6C105.7,260.8,105.6,260.9,105.5,260.9L105.5,260.9z"/>
						<path class="st6" d="M108,259.6c0,0-0.1,0-0.1,0l-2.4-1.2c-0.2-0.1-0.2-0.3-0.2-0.6s0.3-0.4,0.4-0.3l2.4,1.2
							c0.2,0.1,0.2,0.3,0.2,0.6C108.3,259.5,108.2,259.6,108,259.6L108,259.6z"/>
						<path class="st6" d="M108,253.9C108,253.9,108,253.9,108,253.9l0.4-3.1c0,0,0-0.1,0-0.1v0l0,0c0-0.2,0.1-0.3,0.1-0.5
							c0.3-0.8,0.9-1.1,1.5-0.9c-0.1-0.2-0.3-0.4-0.4-0.5c-0.6-0.4-1.3-0.1-1.6,0.8c-0.1,0.1-0.1,0.3-0.1,0.5l0,0v0c0,0,0,0.1,0,0.1
							l-0.4,3.1c0,0.3,0.1,0.5,0.2,0.6C107.8,254,107.9,254,108,253.9L108,253.9z"/>
						<path class="st6" d="M107.9,253.4l-0.4-2.5c0,0,0-0.1,0-0.2l0,0l0,0c0-0.1-0.1-0.3-0.1-0.4c-0.3-0.6-0.9-0.8-1.4-0.4
							c-0.5,0.4-0.6,1.3-0.3,2c0,0.1,0.1,0.2,0.2,0.3l0,0l0,0c0,0,0,0,0.1,0.1l1.4,1.5c0.1,0.1,0.3,0.1,0.4,0
							C107.8,253.8,107.9,253.6,107.9,253.4L107.9,253.4z"/>
						<g>
							<path class="st6" d="M106.6,251.9C106.6,251.8,106.6,251.8,106.6,251.9L106.6,251.9L106.6,251.9c-0.1-0.1-0.2-0.3-0.2-0.4
								c-0.2-0.5-0.2-1.2,0.1-1.7c-0.2,0-0.3,0.1-0.5,0.2c-0.5,0.4-0.6,1.3-0.3,2c0,0.1,0.1,0.2,0.2,0.3l0,0l0,0c0,0,0,0,0.1,0.1
								l1.4,1.5c0.1,0.1,0.3,0.1,0.4,0s0.2-0.3,0.2-0.5l0-0.2L106.6,251.9z"/>
							<path class="st6" d="M111,253.6c0-0.8-0.5-1.4-1-1.3c-0.1,0-0.2,0-0.3,0.1l0,0l0,0c0,0-0.1,0-0.1,0.1l-1.7,1
								c-0.1,0.1-0.2,0.3-0.2,0.5s0.1,0.4,0.2,0.4l1.7,0.6c0,0,0,0,0.1,0l0,0l0,0c0.1,0,0.2,0,0.3,0
								C110.6,255,111.1,254.4,111,253.6L111,253.6z"/>
						</g>
						<path class="st6" d="M110.8,254.6c-0.1,0-0.2,0-0.3,0l0,0l0,0c0,0,0,0-0.1,0l-1.7-0.6c-0.1,0-0.2-0.2-0.2-0.4
							c0-0.1,0-0.2,0.1-0.3l-0.5,0.3c-0.1,0.1-0.2,0.3-0.2,0.5s0.1,0.4,0.2,0.4l1.7,0.6c0,0,0,0,0.1,0l0,0l0,0c0.1,0,0.2,0,0.3,0
							C110.4,255.1,110.6,254.9,110.8,254.6C110.8,254.6,110.8,254.6,110.8,254.6L110.8,254.6z"/>
					</g>
					<path class="st12" d="M107.4,265"/>
					<g>
						<path class="st2" d="M96.3,260c-0.1,0-0.3-0.1-0.3-0.4l-0.1-5.2c0-0.3,0.1-0.5,0.3-0.5l0.3,0c0.2,0,0.3,0.2,0.3,0.4l-0.1,5.3
							C96.6,259.8,96.5,260,96.3,260L96.3,260z"/>
						<path class="st5" d="M96.4,257.3c1.8,1.3,2.3-1.8,2.4-2.8c0-0.2-0.1-0.3-0.2-0.3c-0.7-0.1-2.8-0.1-2.3,2.8
							C96.3,257.1,96.3,257.2,96.4,257.3L96.4,257.3z"/>
						<path class="st6" d="M98.9,257.6c-0.9-0.2-1.9,0.3-2.6,1.3c-0.8-0.8-1.7-1.2-2.6-0.8c-1.9,0.8-3,4.2-2.5,7.6
							c0.5,3.4,2.4,5.5,4.2,4.7c0.3-0.1,0.6-0.3,0.8-0.6c0.3,0.2,0.5,0.3,0.8,0.4c1.9,0.4,3.8-2.2,4.2-5.6
							C101.9,261.1,100.8,258,98.9,257.6L98.9,257.6z"/>
					</g>
				</g>
				<path class="st1" d="M100.1,260.5c0,0.8-0.5,1.5-1,1.6s-1-0.6-1-1.4c0-0.8,0.5-1.5,1-1.6S100.1,259.7,100.1,260.5z"/>
			</g>
		</g>
	</g>
	<g>
		<path class="st13" d="M186.7,176.7l-24.1-8.7c0,0-0.5,3,12.5,7.3c0,0-4,6.9-0.1,8.4s11.5-1.7,11.5-1.7L186.7,176.7z"/>
		<path class="st13" d="M230.2,245.1c0,0,0.1-1.9,2.6-4.2c2.5-2.3,10.1-4.1,10.1-4.1l1.6,5.7l-4.5,4.9L230.2,245.1z"/>
		<polygon class="st14" points="270.6,178 227.7,181.5 186.7,176.7 185.6,181.7 226.6,193.4 266.8,198.1 		"/>
		<line class="st15" x1="287.7" y1="281.1" x2="293" y2="242.4"/>
		<line class="st15" x1="299" y1="284.5" x2="304.4" y2="245.9"/>
		<path class="st16" d="M288.8,241.3c0,0,25.8,11.4,25.8,10.2c0-1.1,6.8-39.8,6.8-39.8l-29.2-3.8L288.8,241.3z"/>
		<path class="st17" d="M286.5,241.3c0,0,25.8,11.4,25.8,10.2c0-1.1,6.8-39.8,6.8-39.8l-29.2-3.8L286.5,241.3z"/>
		<path class="st18" d="M289.2,163.5l6,0.2l2.3-10.9v10.2h7.6v-9l1.6,8.3l11.1-1.2c2.3-41.9-0.8-60.1-3.7-63
			c-3.1-3.1-42.4,9.9-42.4,9.9l1.4,9.1l18.2,32.4L289.2,163.5z"/>
		<path class="st14" d="M292.5,172.4l11.9,9.7c2.9,2.4,3.5,6.6,1.4,9.8l-26.6,53.2c0,0-28.1-4.1-27.6-5c0.3-0.5,6.1-20.4,11.1-37.8
			c0,0-7-1.6-6-5.2c2.3-7.9,13.3-20.4,13.3-20.4l15.4-6L292.5,172.4z"/>
		<path class="st13" d="M293.4,148.5l-0.9,23.9c0,0-21.6,15.6-20.8,15.1c0.9-0.6,13.6-16.8,13.6-16.8l2.6-19.9L293.4,148.5z"/>
		<path class="st13" d="M274,114.7c0,0-18.5,33-8.3,40.1c10.2,7.1,31.3,3.1,33.3-18.2c0.3-4.6,1.1-6.5,1.1-6.5l-21-19.1L274,114.7z"
			/>
		<path class="st18" d="M279.1,111c0,0,14.2,24.2,22.6,24.6s4.9-13.3,4.9-13.3L279.1,111z"/>
		<path class="st13" d="M297.9,136.3c0,0,9.1-6.3,8.8,2.6c-0.3,8.8-10.5,8.8-11.4,2.6C294.5,135.2,297.9,136.3,297.9,136.3z"/>
		<path class="st18" d="M195.2,277.3l10.2,47.8h3.4c0,0,13.3-52.3-0.4-63.3c-13.6-11-18.2-13.3-18.2-13.3S186.1,263.3,195.2,277.3z"
			/>
		<line class="st15" x1="245.6" y1="294" x2="236.1" y2="353.2"/>
		<line class="st15" x1="236.5" y1="291.4" x2="227.4" y2="344.4"/>
		<line class="st15" x1="293.4" y1="291.4" x2="300.2" y2="354.3"/>
		<line class="st15" x1="284.3" y1="290.2" x2="289.2" y2="345.6"/>
		<path class="st16" d="M303.6,287.8c0,4.7-16.5,8.5-36.8,8.5s-36.8-3.8-36.8-8.5s16.5-8.5,36.8-8.5
			C287.1,279.2,303.6,283,303.6,287.8z"/>
		<ellipse class="st19" cx="263.6" cy="330.2" rx="33.5" ry="7.8"/>
		<ellipse class="st17" cx="266.8" cy="285.5" rx="36.8" ry="8.5"/>
		<path class="st18" d="M272.3,239.8c0,0,21.4,13.2,20.7,32.2c-0.8,19-36.4,12.9-53.5,6.1s-48.1-25.8-48.1-25.8s-5.7-1.5,3.8,25
			c-5.9,19-16.7,36.4-16.7,36.4l-3.4-2.3c0,0,13.3-66.7,17.4-70.1c4.2-3.4,56.9,4.5,56.9,4.5l2.2-5.8L272.3,239.8z"/>
		<g>
			<path class="st14" d="M289.1,185c0,0-5.4,56.2-6.6,55.9s-39.6-4.9-39.6-4.9l-2.1,8.5l47.3,12.8l16.9-67.8
				C305.1,189.5,299,174.2,289.1,185z"/>
			<g>
				<path class="st20" d="M288.1,257.2c1.3-5.7,2.7-11.3,4.1-17l4.2-17l4.3-16.9c1.4-5.6,2.9-11.3,4.4-16.9
					c-1.3,5.7-2.7,11.3-4.1,17l-4.2,17l-4.3,16.9C291.1,246,289.6,251.6,288.1,257.2z"/>
			</g>
			<g>
				<path class="st20" d="M289.1,185c-0.4,4.7-0.8,9.4-1.3,14l-1.4,14c-0.5,4.7-1.1,9.3-1.6,14c-0.3,2.3-0.6,4.7-0.9,7
					c-0.2,1.2-0.4,2.3-0.5,3.5c-0.1,0.6-0.2,1.2-0.3,1.7c-0.1,0.3-0.1,0.6-0.2,0.9c-0.1,0.3-0.1,0.6-0.3,0.8
					c0.2-0.2,0.2-0.5,0.3-0.8c0.1-0.3,0.1-0.6,0.2-0.9c0.1-0.6,0.2-1.2,0.3-1.7c0.2-1.2,0.3-2.3,0.5-3.5l0.9-7c0.5-4.7,1-9.3,1.5-14
					L289.1,185z"/>
			</g>
		</g>
		<g>
			<g>
				<path class="st21" d="M304.7,138.2c-0.5-0.5-1.1-0.9-1.8-0.9c-0.7-0.1-1.3,0.1-1.9,0.5s-1.1,0.8-1.6,1.3c-0.5,0.5-0.9,1-1.4,1.6
					l-0.1-0.4c0.3,0.1,0.5,0.3,0.8,0.5c0.2,0.2,0.5,0.6,0.3,1c-0.1,0.4-0.5,0.5-0.7,0.6c-0.3,0.1-0.6,0.2-0.9,0.2
					c0.3-0.1,0.5-0.2,0.8-0.4c0.2-0.1,0.5-0.4,0.5-0.6c0-0.2-0.1-0.4-0.3-0.5c-0.2-0.1-0.5-0.3-0.7-0.4l-0.3-0.1l0.2-0.3
					c0.4-0.6,0.8-1.2,1.4-1.7c0.5-0.5,1.1-1,1.7-1.4c0.6-0.4,1.5-0.5,2.2-0.4C303.8,137,304.4,137.6,304.7,138.2z"/>
			</g>
		</g>
		<g>
			<path class="st20" d="M282.5,240.9c-1.6-0.2-3.3-0.4-5-0.6l-5-0.6l-9.9-1.2l-9.9-1.2c-3.3-0.4-6.6-0.9-9.9-1.3
				c3.3,0.3,6.6,0.7,9.9,1l9.9,1.1l9.9,1.3C275.9,239.9,279.2,240.3,282.5,240.9z"/>
		</g>
		<g>
			<g>
				<path class="st21" d="M275.5,134.1c-0.2,1.2-0.5,2.4-0.8,3.5c-0.3,1.2-0.6,2.3-0.9,3.5l0,0.2l-0.2,0c-1.3,0.1-2.5,0.2-3.8,0.3
					l0.1-0.5c0.8,0.4,1.6,0.8,2.4,1.2c0.8,0.4,1.6,0.8,2.4,1.3c-0.9-0.3-1.7-0.6-2.5-0.9c-0.8-0.3-1.7-0.6-2.5-1l-0.9-0.4l1-0.1
					c1.3-0.1,2.5-0.3,3.8-0.4l-0.3,0.2c0.4-1.1,0.7-2.3,1.1-3.4C274.7,136.4,275.1,135.3,275.5,134.1z"/>
			</g>
			<g>
				<path class="st21" d="M282.5,145.8c-0.5,1-1.1,2-1.9,2.9s-1.6,1.7-2.7,2.2c-0.5,0.2-1.2,0.4-1.8,0.3c-0.6-0.1-1.2-0.3-1.7-0.7
					c-0.9-0.8-1.5-1.9-1.8-2.9c0.6,1,1.2,1.9,2.1,2.6c0.9,0.6,2,0.7,3,0.2c1-0.4,1.8-1.2,2.6-2C281.1,147.6,281.8,146.7,282.5,145.8
					z"/>
			</g>
		</g>
		<path class="st18" d="M281.4,133.8c0,1.3-0.5,2.4-1.1,2.4c-0.6,0-1.1-1.1-1.1-2.4s0.5-2.4,1.1-2.4
			C281,131.5,281.4,132.5,281.4,133.8z"/>
		<path class="st18" d="M273.7,133.2c0,1.3-0.5,2.4-1.1,2.4c-0.6,0-1.1-1.1-1.1-2.4c0-1.3,0.5-2.4,1.1-2.4S273.7,131.9,273.7,133.2z
			"/>
		<path class="st18" d="M278.2,126.8c0,0,6-6.3,6.8,1.9"/>
		<path class="st18" d="M275.5,126.1c0,0-2.9-6.1-5.8,1.9"/>
		<polygon class="st14" points="175.1,311.4 146,330.7 178.6,321.1 178.5,313.7 		"/>
		<path class="st14" d="M205.4,325.1l-13.2,17l-13.6,7.1h21.6c0,0,15.4-15.1,14.7-16.6s-6.1-7.5-6.1-7.5L205.4,325.1L205.4,325.1z"
			/>
		<g>
			<path class="st20" d="M262.7,202.3c-1.8-0.4-3.6-1-5.1-2.2c-0.7-0.6-1.3-1.6-1.1-2.6c0.1-1,0.5-1.8,0.9-2.7
				c0.7-1.7,1.6-3.3,2.6-4.9c1-1.6,2.1-3.1,3.2-4.5c-1,1.5-2,3.1-2.9,4.7s-1.8,3.2-2.5,4.9c-0.3,0.8-0.7,1.7-0.9,2.6
				c-0.1,0.9,0.3,1.7,1,2.3c0.6,0.6,1.5,1.1,2.3,1.5C260.9,201.7,261.8,202,262.7,202.3z"/>
		</g>
	</g>
</g>
<g>
	<g>
		<polygon class="st14" points="134.6,416.1 110.5,418.3 93.9,447.2 135.6,458.2 145.2,434.1 143.4,410.7 		"/>
		<path class="st18" d="M70.3,321.9c0,0,8.3-6.1,10.5-10.3c-4.8-6.5-17.1-7-17.1-7s-16.6-13.8-28.6-11.4c-12,2.4-11.3,76.2-7.9,82.7
			c3.4,6.5,11.1,14.1,11.1,14.1l26.6-6.5c0,0-6.1-27.8-4.9-34.1C61.2,343,70.3,321.9,70.3,321.9z"/>
		<path class="st13" d="M62.8,306.5c0,0,8.1,5.9,9.1,18.8c1.1,12.9-9.6,26.7-12.1,28.7c-5.9-0.8-16.6-6.3-16.6-6.3s0.8,15.5,9,26.7
			c1.5,6.8,7.6,14.5,7.6,14.5l-17.2-5.2c0,0-8.5-33.5-9.5-51.7c0.6-3.1,2.3-4.6,2.3-4.6S48.4,325.7,62.8,306.5z"/>
		<path class="st22" d="M52.3,374.3c0,0,15.5,3.4,23,6.6S78,400,78,400s21.4,19,36,20c-0.5,11.7-12.8,27.2-12.8,27.2l-50.8-21.5
			l-15.3-42l5.2-8.9L52.3,374.3z"/>
		<path class="st13" d="M37.2,328.7c0,0-0.8-6-5.5-5.7s-5.2,6.9,1.5,9C37,331.2,37.2,328.7,37.2,328.7z"/>
		<g>
			<path class="st21" d="M61.1,330.4c-0.1,1-0.2,2-0.3,3c-0.1,1-0.3,2-0.4,3c-0.3,2-0.6,4-0.7,6.1l-0.1,0.5l-0.4-0.4
				c-0.6-0.6-1.2-1.2-1.7-1.9c-0.5-0.7-0.9-1.5-1.1-2.3c0.3,0.8,0.8,1.5,1.3,2.1c0.3,0.3,0.6,0.6,0.9,0.9s0.6,0.5,0.9,0.8l-0.4,0.2
				c0.1-1,0.2-2,0.3-3.1c0.1-1,0.3-2,0.4-3c0.1-1,0.4-2,0.6-3C60.6,332.4,60.8,331.4,61.1,330.4z"/>
		</g>
		<path class="st18" d="M58.2,323.2c0,0-0.5-3.6-8.4-2.5"/>
		<path class="st18" d="M63.7,325.4c0,0,5.7-2.7,7.4,0.4"/>
		<path class="st14" d="M134.6,416.1c0,0,40.7-48.5,99.4-81.4c7.1,22.8,29.9,113.2,29.9,113.2l-7.5,2c0,0-11-33.4-20.8-43.6
			c-9.8-10.2-16.5-21.8-11.8-32.8c-14.9,6.3-52.9,28.3-70.6,42.1c-15,6-16.2,6.4-16.2,6.4L134.6,416.1z"/>
		<path class="st14" d="M134.6,423l-2.1,2.6c20.1-15.9,85.8-52.8,113.8-61c-4.1,39.8-21.5,138.8-21.5,138.8h-4.7
			c0,0-0.3-45.4-2.1-59.8s-3.8-19.5,1.2-30.7c-3.2,5.6-11.8,27.7-25.9,38.9s-61.3,21.2-61.3,21.2l-2.4-38L134.6,423z"/>
		<g>
			<path class="st23" d="M132.5,425.7c6.7-5.4,13.9-10.1,21.2-14.8c7.3-4.6,14.7-9,22.2-13.2c7.5-4.2,15.1-8.3,22.7-12.3
				c3.8-2,7.7-3.9,11.6-5.7s7.8-3.6,11.7-5.4c-3.9,1.9-7.7,3.8-11.6,5.7c-3.8,1.9-7.7,3.9-11.5,5.9c-7.6,4-15.2,8.1-22.6,12.4
				c-7.5,4.2-14.9,8.6-22.3,13c-3.7,2.2-7.3,4.5-10.9,6.9C139.5,420.6,135.9,423,132.5,425.7z"/>
		</g>
		<path class="st24" d="M134.6,368.8h-2.8c0,0-10.9,6.3-8.6,12.4c-6.1-5.9-35.5-3.9-35.5-3.9l-5.6,36.3l3.8,3.2l38.3-23.3L131,379
			L134.6,368.8z"/>
		<polygon class="st18" points="123.2,382.4 89.4,379 84.1,418.4 115.8,421.2 		"/>
		<polygon class="st25" points="123.2,382.4 126.7,381.1 119.2,420 115.8,421.2 		"/>
		<polygon class="st18" points="126.7,381.1 135.6,367.2 126.7,409.1 119.2,420 		"/>
		<path class="st13" d="M110.5,418.3c0,0-6.8-9.7-7.7-13.1c-1-3.3,3.4-2.1,6.3,2.9c3.1,4.6,3.1,4.6,3.1,4.6s8.2-15.4,12.5-15.2
			c4.3,0.2,3.6,11.8,0,15.7S91,439.8,84.1,443.9c-6.9,4.1-46.9-53.8-46.9-53.8s-2.7-13.8,3.1-15.3c5.8-1.6,40.5,54.4,40.5,54.4
			L110.5,418.3z"/>
		<path class="st26" d="M12.4,255c0,0,1.2-1.2,6.7,2.7c5.5,3.9,9,20.1,10.2,64.5s17.3,83.3,40.5,102.6
			c23.2,19.3,60.9,30.7,77.4,13.8s54.6-18.1,67.2-5.1c-4.3,3.1-38.5,19.6-38.5,19.6l-67.6,11.8l-77-63.3L12.3,291.1L12.4,255
			L12.4,255z"/>
		<path class="st17" d="M12.4,255c0,0,11.8,5.9,12.6,48.3c0.8,42.5,7.1,111.2,66,139.5s78.2-17.7,123.4-9.4
			c-5.9,17.7-37,45.4-83.3,48.5C78.6,485.5,24.9,453.9,7.3,380.4C-10.4,306.9,12.4,255,12.4,255z"/>
		<path class="st14" d="M223.5,388.2c-0.3-0.8-0.5-1.5-0.6-2.3c-1.6-7.3,2.1-15,5.6-21.3c2.2-3.9,8.1-5.2,11.9-2.7
			c3.6,2.3,3.6,8.7,4.7,12.6c3,11.3,5.9,22.6,8.8,34c3.4,13.2,6.8,26.4,10.1,39.6l-7.5,2c0,0-11-33.4-20.8-43.6
			C230.7,401.2,225.7,395.1,223.5,388.2z"/>
		<path class="st18" d="M263.9,448c0,0,22.8,6.3,35,20.4c-16.5-2.4-43.2-10.2-43.2-11.4s0.8-7.1,0.8-7.1L263.9,448z"/>
		<path class="st18" d="M224.8,503.5l17.1,13.7c0,0,13.8,0,19.3,6.3c-13.4,0-29.9,0-29.9,0l-18.1-12.2l6.9-7.8"/>
		<g>
			<path class="st21" d="M30.4,325.6c0.5-0.3,1.2-0.3,1.7,0c0.6,0.2,1.1,0.6,1.5,1c0.8,0.9,1.3,2,1.7,3l0.2,0.4l-0.4,0
				c-0.8-0.1-1.7-0.2-2.5-0.4c0.8-0.1,1.7-0.1,2.5-0.1l-0.3,0.4c-0.3-0.5-0.5-1-0.8-1.5s-0.6-0.9-0.9-1.4c-0.3-0.4-0.7-0.8-1.2-1.1
				C31.5,325.6,31,325.5,30.4,325.6z"/>
		</g>
		<g>
			<line class="st27" x1="145.2" y1="479.6" x2="167.6" y2="525.6"/>
			<line class="st27" x1="100.4" y1="479.6" x2="78" y2="525.6"/>
			<line class="st28" x1="152.9" y1="494.9" x2="109.2" y2="480.8"/>
			<line class="st28" x1="138.7" y1="480.8" x2="93.9" y2="494.9"/>
			<circle class="st14" cx="150.7" cy="493.9" r="1.6"/>
			<circle class="st14" cx="94.9" cy="493.9" r="1.6"/>
		</g>
		<ellipse class="st29" cx="54.4" cy="329.5" rx="1.2" ry="2"/>
		<ellipse class="st29" cx="63.7" cy="332.4" rx="1.2" ry="2"/>
		<g>
			<path class="st21" d="M56.4,345.7c-1,0.6-2.3,1-3.6,0.8c-1.3-0.2-2.4-1-3.1-2l-0.3-0.4l-0.2-0.4c-0.1-0.3-0.3-0.6-0.4-0.9
				c-0.1-0.6-0.4-1.2-0.5-1.8c-0.1-0.6-0.2-1.2-0.2-1.8c0-0.6,0-1.2,0-1.8c0.1,0.6,0.2,1.2,0.3,1.8c0.1,0.6,0.3,1.2,0.4,1.8
				c0.1,0.6,0.4,1.1,0.6,1.7c0.1,0.3,0.3,0.5,0.4,0.8l0.2,0.4l0.3,0.4c0.6,1,1.6,1.7,2.7,1.9C54,346.3,55.3,346.1,56.4,345.7z"/>
		</g>
		<path class="st13" d="M127.4,415.4c0,0,7.2-12.8,17.1-10.2c9.9,2.6,6.3,11.3-5.8,11.4c-12.1,0.2-12.1,0.2-12.1,0.2l0,0"/>
		<g>
			<path class="st23" d="M235.6,406.3c-2.8-2.7-5.5-5.6-7.8-8.8c-2.3-3.2-4.1-6.8-5.1-10.6c-1.1-3.9-0.6-8,0.6-11.7
				c1.2-3.8,3.1-7.3,5.1-10.6c-1.8,3.5-3.5,7-4.5,10.8c-1.1,3.7-1.5,7.7-0.4,11.4c0.9,3.8,2.8,7.2,4.9,10.5
				C230.5,400.4,233,403.4,235.6,406.3z"/>
		</g>
	</g>
</g>
</svg>
